<?xml version="1.0" encoding="utf-8"?>
<!-- Generator: Adobe Illustrator 24.0.1, SVG Export Plug-In . SVG Version: 6.00 Build 0)  -->
<svg version="1.1" id="Слой_1" xmlns="http://www.w3.org/2000/svg" xmlns:xlink="http://www.w3.org/1999/xlink" x="0px" y="0px"
	 viewBox="0 0 170 170" style="enable-background:new 0 0 170 170;" xml:space="preserve">
<style type="text/css">
	.st0{fill:#FFFFFF;}
	.st1{fill:#E30713;}
	.st2{fill:none;}
</style>
<path class="st0" d="M10.3,159.9h130c11,0,20-9,20-20V80h-150V159.9z"/>
<path class="st1" d="M30.3,9.9c-11,0-20,9-20,20v50h150v-70H30.3z"/>
<g>
	<path class="st0" d="M53.1,52.3v17.3H40.5V20.3h21.1c6.1,0,10.8,1.4,14,4.3c3.3,2.8,4.9,6.8,4.9,12c0,3.1-0.7,5.9-2.2,8.4
		c-1.5,2.5-3.6,4.4-6.2,5.5L82,69.6H67.9l-8.5-17.3H53.1z M53.1,29.7v14h7.3c2.3,0,4.1-0.6,5.4-1.9c1.3-1.3,1.9-3,1.9-5.1
		c0-2.1-0.7-3.8-2-5.1c-1.3-1.3-3.1-1.9-5.4-1.9H53.1z"/>
	<path class="st0" d="M122.5,69.6H110V30.4H94.4V20.3h43.7v10.1h-15.6V69.6z"/>
</g>
<path class="st1" d="M82,129.5v10.1H40.2V90.3H82v10.1H52.7v9.8h27v9.2h-27v10H82z"/>
<path class="st1" d="M94.5,90.3h20c7.5,0,13.3,2.1,17.4,6.3c4.1,4.2,6.2,10.2,6.2,18c0,7.9-2.1,14-6.2,18.4
	c-4.2,4.4-10,6.6-17.4,6.6h-20V90.3z M107.1,100.4v29.1h5.8c4.1,0,7.2-1.2,9.3-3.7c2.1-2.5,3.2-6.2,3.2-11.1c0-4.6-1.1-8.1-3.3-10.6
	s-5.3-3.7-9.3-3.7H107.1z"/>
<g>
	<path class="st0" d="M160.3,9.9v130c0,11-9,20-20,20h-130v-130c0-11,9-20,20-20H160.3 M170.3-0.1h-140c-16.6,0-30,13.4-30,30v140
		h140c16.6,0,30-13.4,30-30V-0.1L170.3-0.1z"/>
</g>
<path class="st2" d="M10.3,159.9h130c11,0,20-9,20-20v-60h-150V159.9z"/>
<path class="st2" d="M10.3,29.9V80h150V9.9h-130C19.2,9.9,10.3,18.9,10.3,29.9z"/>
<g>
	<path class="st1" d="M32.7,156.3H31v3.6H29v-10h3.7c1.2,0,2.1,0.3,2.7,0.8s1,1.3,1,2.2c0,0.7-0.1,1.2-0.4,1.7
		c-0.3,0.5-0.7,0.8-1.3,1.1l2.2,4.1v0.1h-2.2L32.7,156.3z M31,154.6h1.7c0.5,0,0.9-0.1,1.2-0.4c0.3-0.3,0.4-0.6,0.4-1.1
		c0-0.5-0.1-0.8-0.4-1.1s-0.7-0.4-1.2-0.4H31V154.6z"/>
	<path class="st1" d="M41.7,160.1c-1.1,0-2-0.3-2.6-1s-1-1.6-1-2.7v-0.2c0-0.7,0.1-1.4,0.4-2c0.3-0.6,0.7-1,1.2-1.4
		c0.5-0.3,1.1-0.5,1.8-0.5c1,0,1.8,0.3,2.4,1s0.9,1.5,0.9,2.7v0.8H40c0.1,0.5,0.3,0.9,0.6,1.2s0.7,0.4,1.2,0.4
		c0.8,0,1.4-0.3,1.8-0.8l1,1.1c-0.3,0.4-0.7,0.7-1.2,1C42.9,159.9,42.3,160.1,41.7,160.1z M41.5,154c-0.4,0-0.7,0.1-1,0.4
		s-0.4,0.6-0.5,1.1h2.7v-0.2c0-0.4-0.1-0.8-0.4-1S41.9,154,41.5,154z"/>
	<path class="st1" d="M50.7,159.9c-0.1-0.2-0.2-0.4-0.2-0.7c-0.5,0.5-1.1,0.8-1.9,0.8c-0.7,0-1.3-0.2-1.8-0.6s-0.7-0.9-0.7-1.6
		c0-0.8,0.3-1.4,0.9-1.8s1.4-0.6,2.5-0.6h0.9V155c0-0.3-0.1-0.6-0.3-0.8s-0.5-0.3-0.8-0.3c-0.3,0-0.6,0.1-0.8,0.2s-0.3,0.4-0.3,0.7
		h-2c0-0.4,0.1-0.8,0.4-1.2s0.6-0.7,1.1-0.9c0.5-0.2,1-0.3,1.6-0.3c0.9,0,1.6,0.2,2.2,0.7c0.5,0.5,0.8,1.1,0.8,1.9v3.2
		c0,0.7,0.1,1.2,0.3,1.6v0.1H50.7z M49,158.5c0.3,0,0.6-0.1,0.8-0.2c0.2-0.1,0.4-0.3,0.5-0.5v-1.3h-0.7c-1,0-1.5,0.3-1.6,1l0,0.1
		c0,0.2,0.1,0.4,0.3,0.6S48.7,158.5,49,158.5z"/>
	<path class="st1" d="M56.5,159.9h-2v-10.5h2V159.9z"/>
	<path class="st1" d="M69.9,151.6h-3v8.3h-2.1v-8.3h-3V150h8.1V151.6z"/>
	<path class="st1" d="M71.5,150.6c0-0.3,0.1-0.5,0.3-0.7s0.5-0.3,0.8-0.3c0.3,0,0.6,0.1,0.8,0.3s0.3,0.4,0.3,0.7
		c0,0.3-0.1,0.5-0.3,0.7s-0.5,0.3-0.8,0.3s-0.6-0.1-0.8-0.3S71.5,150.9,71.5,150.6z M73.6,159.9h-2v-7.4h2V159.9z"/>
	<path class="st1" d="M77.6,152.5l0.1,0.8c0.5-0.6,1.2-1,2.1-1c1,0,1.6,0.4,2,1.1c0.5-0.8,1.3-1.1,2.2-1.1c0.8,0,1.4,0.2,1.8,0.7
		c0.4,0.5,0.6,1.2,0.6,2.1v4.7h-2v-4.7c0-0.4-0.1-0.7-0.2-0.9c-0.2-0.2-0.5-0.3-0.9-0.3c-0.6,0-1,0.3-1.2,0.8l0,5.1h-2v-4.7
		c0-0.4-0.1-0.7-0.3-0.9s-0.5-0.3-0.9-0.3c-0.6,0-1,0.2-1.2,0.7v5.2h-2v-7.4H77.6z"/>
	<path class="st1" d="M91.7,160.1c-1.1,0-2-0.3-2.6-1c-0.7-0.7-1-1.6-1-2.7v-0.2c0-0.7,0.1-1.4,0.4-2c0.3-0.6,0.7-1,1.2-1.4
		c0.5-0.3,1.1-0.5,1.8-0.5c1,0,1.8,0.3,2.4,1c0.6,0.6,0.9,1.5,0.9,2.7v0.8h-4.7c0.1,0.5,0.3,0.9,0.6,1.2s0.7,0.4,1.2,0.4
		c0.8,0,1.4-0.3,1.8-0.8l1,1.1c-0.3,0.4-0.7,0.7-1.2,1C92.9,159.9,92.3,160.1,91.7,160.1z M91.5,154c-0.4,0-0.7,0.1-1,0.4
		c-0.2,0.3-0.4,0.6-0.5,1.1h2.7v-0.2c0-0.4-0.1-0.8-0.4-1S91.9,154,91.5,154z"/>
	<path class="st1" d="M108.4,158.7c-0.4,0.4-0.9,0.8-1.6,1c-0.7,0.2-1.4,0.4-2.2,0.4c-0.9,0-1.6-0.2-2.3-0.6
		c-0.6-0.4-1.2-0.9-1.5-1.6c-0.4-0.7-0.5-1.6-0.5-2.5v-0.7c0-1,0.2-1.9,0.5-2.6c0.3-0.7,0.8-1.3,1.4-1.7c0.6-0.4,1.4-0.6,2.2-0.6
		c1.2,0,2.1,0.3,2.8,0.8c0.7,0.6,1.1,1.4,1.2,2.5h-2c-0.1-0.6-0.3-1-0.6-1.3c-0.3-0.3-0.7-0.4-1.3-0.4c-0.7,0-1.2,0.3-1.6,0.8
		s-0.5,1.3-0.6,2.3v0.6c0,1,0.2,1.8,0.6,2.4s1,0.8,1.7,0.8c0.8,0,1.3-0.2,1.6-0.5v-1.7h-1.9v-1.5h3.9V158.7z"/>
	<path class="st1" d="M114.6,154.4c-0.3,0-0.5-0.1-0.7-0.1c-0.7,0-1.2,0.3-1.5,0.8v4.8h-2v-7.4h1.9l0.1,0.9c0.4-0.7,0.9-1,1.6-1
		c0.2,0,0.4,0,0.6,0.1L114.6,154.4z"/>
	<path class="st1" d="M115.7,156.2c0-0.7,0.1-1.4,0.4-2s0.7-1,1.2-1.3c0.5-0.3,1.1-0.5,1.8-0.5c1,0,1.8,0.3,2.4,0.9
		c0.6,0.6,1,1.4,1.1,2.5l0,0.5c0,1.1-0.3,2-1,2.7c-0.6,0.7-1.5,1-2.5,1s-1.9-0.3-2.6-1C116,158.3,115.7,157.4,115.7,156.2
		L115.7,156.2z M117.6,156.3c0,0.7,0.1,1.2,0.4,1.6s0.6,0.6,1.1,0.6c0.5,0,0.9-0.2,1.1-0.6c0.3-0.4,0.4-1,0.4-1.8
		c0-0.7-0.1-1.2-0.4-1.6s-0.6-0.6-1.1-0.6c-0.5,0-0.9,0.2-1.1,0.6C117.8,154.9,117.6,155.5,117.6,156.3z"/>
	<path class="st1" d="M128.8,159.2c-0.5,0.6-1.2,0.9-2,0.9c-0.8,0-1.4-0.2-1.8-0.7c-0.4-0.5-0.6-1.1-0.6-2v-4.8h2v4.8
		c0,0.8,0.4,1.2,1.1,1.2c0.7,0,1.1-0.2,1.4-0.7v-5.2h2v7.4h-1.9L128.8,159.2z"/>
	<path class="st1" d="M139.4,156.3c0,1.1-0.3,2.1-0.8,2.7c-0.5,0.7-1.2,1-2.1,1c-0.7,0-1.4-0.3-1.8-0.8v3.5h-2v-10.2h1.8l0.1,0.7
		c0.5-0.6,1.1-0.9,1.9-0.9c0.9,0,1.6,0.3,2.1,1s0.8,1.6,0.8,2.8V156.3z M137.4,156.1c0-0.7-0.1-1.2-0.4-1.6
		c-0.2-0.4-0.6-0.6-1.1-0.6c-0.6,0-1,0.2-1.3,0.7v3c0.2,0.5,0.7,0.7,1.3,0.7C136.9,158.5,137.4,157.7,137.4,156.1z"/>
</g>
</svg>
