<?xml version="1.0" encoding="utf-8"?>
<!-- Generator: Adobe Illustrator 24.0.1, SVG Export Plug-In . SVG Version: 6.00 Build 0)  -->
<svg version="1.1" id="Слой_1" xmlns="http://www.w3.org/2000/svg" xmlns:xlink="http://www.w3.org/1999/xlink" x="0px" y="0px"
	 viewBox="0 0 140 140" style="enable-background:new 0 0 140 140;" xml:space="preserve">
<style type="text/css">
	.st0{fill:#FFFFFF;}
	.st1{fill:#E30713;}
</style>
<g>
	<path class="st0" d="M140,121.3V70H0v70h121.3C131.6,140,140,131.6,140,121.3z"/>
	<path class="st1" d="M18.7,0C8.4,0,0,8.4,0,18.7V70h140V0H18.7z"/>
	<g>
		<path class="st0" d="M35.6,42.6v17.1H23.2V10.8h20.9c6.1,0,10.7,1.4,13.9,4.2c3.2,2.8,4.8,6.8,4.8,11.9c0,3.1-0.7,5.9-2.2,8.4
			c-1.5,2.5-3.5,4.3-6.2,5.5l9.8,18.9h-14L42,42.6H35.6z M35.6,20.2v13.9h7.3c2.3,0,4.1-0.6,5.4-1.9c1.3-1.2,1.9-2.9,1.9-5.1
			c0-2.1-0.7-3.8-2-5.1c-1.3-1.3-3.1-1.9-5.3-1.9H35.6z"/>
		<path class="st0" d="M101.4,59.7H89V20.9H73.5v-10h43.3v10h-15.5V59.7z"/>
	</g>
	<path class="st1" d="M63.7,118.8v10H22.2V80h41.5v10h-29v9.7h26.7v9.2H34.7v10H63.7z"/>
	<path class="st1" d="M73.5,80h19.9c7.4,0,13.2,2.1,17.3,6.3c4.1,4.2,6.2,10.1,6.2,17.9c0,7.8-2.1,13.9-6.2,18.2
		c-4.1,4.4-9.9,6.5-17.3,6.5H73.5V80z M85.9,90v28.8h5.8c4.1,0,7.2-1.2,9.3-3.7c2.1-2.5,3.2-6.1,3.2-11c0-4.6-1.1-8.1-3.3-10.5
		c-2.2-2.4-5.2-3.7-9.2-3.7H85.9z"/>
</g>
</svg>
